<svg xmlns="http://www.w3.org/2000/svg" viewBox="0 0 128 128"><circle fill="#262626" cx="64" cy="64" r="64"/><path fill="#FFF" d="M80.906 88.695c-1.227-7.195-3.224-14.033-5.644-20.394 5.224-.655 11.26-.51 18.25.778-1.406 8.12-6.065 15.109-12.606 19.616zm-35.066-.923c5.05-7.616 12.1-15.142 23.536-18.307 2.688 6.866 4.866 14.336 6.037 22.221A30.239 30.239 0 0 1 64 93.926a29.747 29.747 0 0 1-18.16-6.154zM34.074 64v-.958h.179c10.663 0 21.269-.716 30.76-3.494.69 1.433 1.412 2.898 2.061 4.421-12.482 3.676-20.277 11.886-25.592 19.71-4.63-5.253-7.408-12.153-7.408-19.679zm17.052-27.031a147.203 147.203 0 0 1 11.082 17.203c-8.423 2.302-17.83 2.929-27.328 2.957 2.095-8.899 8.187-16.276 16.246-20.16zm32.26 4.242c-4.21 5.138-9.496 8.66-15.505 11.051-3.819-7.109-7.795-13.022-10.925-17.354A30.536 30.536 0 0 1 64 34.074c7.41 0 14.157 2.688 19.387 7.137zm4.123 4.3a29.94 29.94 0 0 1 6.418 17.652c-8.064-1.403-14.992-1.465-20.967-.507a149.181 149.181 0 0 0-2.357-5.079c6.416-2.627 12.186-6.48 16.906-12.065zM64 28.162C44.199 28.16 28.16 44.197 28.16 64c0 19.8 16.04 35.84 35.84 35.84 19.802 0 35.84-16.04 35.84-35.84 0-19.802-16.038-35.84-35.84-35.84z"/></svg>