<svg xmlns="http://www.w3.org/2000/svg" viewBox="0 0 128 128"><circle fill="#262626" cx="64" cy="64" r="64"/><path d="M28.174 64.03c-.447-11.743 9.84-22.594 21.594-22.736 5.992-.511 11.818 1.814 16.355 5.611-1.86 2.043-3.756 4.066-5.773 5.959-3.995-2.425-8.8-4.273-13.463-2.633-7.528 2.143-12.079 11.026-9.3 18.388 2.308 7.686 11.661 11.904 18.987 8.674 3.797-1.357 6.295-4.86 7.393-8.621-4.35-.087-8.7-.033-13.05-.154-.007-2.588-.02-5.163-.007-7.75 7.252-.012 14.516-.033 21.78.034.443 6.337-.49 13.123-4.61 18.21-5.644 7.263-16.072 9.394-24.553 6.547-9.005-2.956-15.549-12.026-15.353-21.53m58.65-9.785h6.469c.012 2.164.031 4.337.043 6.502 2.164.021 4.34.03 6.504.044v6.48l-6.504.03c-.02 2.175-.031 4.34-.043 6.514-2.164-.01-4.328 0-6.482 0-.022-2.174-.022-4.34-.042-6.501-2.163-.022-4.34-.034-6.5-.044V60.79c2.16-.014 4.325-.023 6.5-.044.012-2.165.034-4.338.055-6.502" fill="#FFF"/></svg>