<svg xmlns="http://www.w3.org/2000/svg" viewBox="0 0 128 128"><circle fill="#517EA3" cx="64" cy="64" r="64"/><path fill-rule="evenodd" clip-rule="evenodd" fill="#FFF" d="M91.571 58.483h-6.24a22.1 22.1 0 0 1 .724 5.516c0 12.183-9.875 22.056-22.056 22.056-12.18 0-22.054-9.873-22.054-22.057 0-1.906.27-3.75.725-5.515h-6.24V88.81a2.758 2.758 0 0 0 2.759 2.755H88.81a2.758 2.758 0 0 0 2.761-2.755V58.483zm0-19.297a2.759 2.759 0 0 0-2.76-2.757h-8.269a2.757 2.757 0 0 0-2.757 2.757v8.272a2.757 2.757 0 0 0 2.757 2.757h8.268a2.759 2.759 0 0 0 2.761-2.757v-8.272zM64 50.215c-7.613 0-13.784 6.17-13.784 13.783 0 7.613 6.171 13.787 13.784 13.787 7.614 0 13.786-6.174 13.786-13.787S71.613 50.215 64 50.215M91.57 99.84H36.43c-4.566 0-8.269-3.704-8.269-8.274V36.43a8.27 8.27 0 0 1 8.27-8.269H91.57a8.268 8.268 0 0 1 8.269 8.27v55.136a8.27 8.27 0 0 1-8.269 8.274"/></svg>