<svg xmlns="http://www.w3.org/2000/svg" viewBox="0 0 128 128"><circle fill="#FFEA00" cx="64" cy="64" r="64"/><path fill="#FFF" d="M64.443 96.942c-.18 0-.358-.004-.536-.012a5.124 5.124 0 0 1-.35.012c-4.159 0-6.828-1.886-9.409-3.71-1.782-1.26-3.463-2.449-5.445-2.779-.967-.16-1.93-.242-2.86-.242-1.676 0-2.997.26-3.962.448-.586.115-1.092.213-1.477.213-.401 0-.837-.086-1.026-.732a23.782 23.782 0 0 1-.398-1.627c-.294-1.35-.503-2.181-1.07-2.268-6.595-1.017-8.482-2.408-8.903-3.392a1.279 1.279 0 0 1-.102-.424.742.742 0 0 1 .621-.774c10.139-1.67 14.686-12.032 14.874-12.471l.016-.036c.621-1.258.742-2.35.363-3.245-.696-1.64-2.966-2.36-4.468-2.836-.367-.117-.715-.227-.99-.336-2.998-1.184-3.247-2.4-3.13-3.02.202-1.057 1.614-1.793 2.755-1.793.313 0 .59.056.82.164 1.35.631 2.564.951 3.613.951 1.448 0 2.081-.608 2.158-.688a227.96 227.96 0 0 0-.129-2.143c-.303-4.793-.677-10.749.84-14.149 4.544-10.191 14.184-10.983 17.03-10.983l1.247-.012h.168c2.853 0 12.512.792 17.06 10.989 1.517 3.401 1.141 9.363.84 14.153l-.013.208c-.042.667-.083 1.315-.116 1.936.072.074.653.634 1.968.683.998-.038 2.146-.356 3.405-.945.37-.172.78-.209 1.057-.209.426 0 .859.083 1.217.232l.022.01c1.018.36 1.685 1.074 1.7 1.82.013.702-.523 1.758-3.154 2.796-.272.108-.62.218-.99.336-1.502.476-3.771 1.197-4.466 2.836-.381.895-.26 1.986.361 3.244l.018.037c.187.439 4.73 10.798 14.874 12.47a.744.744 0 0 1 .62.775 1.206 1.206 0 0 1-.104.424c-.418.978-2.304 2.366-8.901 3.385-.54.083-.748.785-1.07 2.258a23.4 23.4 0 0 1-.398 1.616c-.14.48-.44.705-.944.705h-.082c-.35 0-.847-.062-1.477-.185-1.116-.219-2.369-.421-3.962-.421a17.6 17.6 0 0 0-2.861.242c-1.98.33-3.66 1.517-5.439 2.775-2.586 1.828-5.255 3.714-9.415 3.714z"/></svg>