<svg xmlns="http://www.w3.org/2000/svg" viewBox="0 0 128 128"><circle fill="#3B445C" cx="64" cy="64" r="64"/><path fill="#FFF" d="M73.625 102.4c7.685 0 15.299-2.736 17.818-6.05l.504-.664-4.763-14.12a.32.32 0 0 0-.305-.218H76.238a.317.317 0 0 1-.311-.233c-.124-.47-.198-1.045-.21-1.758V62.09a.32.32 0 0 1 .323-.32h12.519a.323.323 0 0 0 .322-.323V43.781a.322.322 0 0 0-.322-.32H76.092a.32.32 0 0 1-.32-.322v-17.22a.322.322 0 0 0-.323-.32H53.587a3.714 3.714 0 0 0-3.631 3.31c-1.092 8.888-5.168 14.22-12.829 16.78l-.855.286a.32.32 0 0 0-.22.304v15.168c0 .178.145.322.322.322h7.824v18.682c0 14.914 10.329 21.95 29.427 21.95zm14.643-7.209c-2.398 2.307-7.32 4.02-12.037 4.099-.178.003-.352.005-.528.005h-.002c-15.515-.002-19.655-11.846-19.655-18.844V58.945a.322.322 0 0 0-.321-.322h-7.503a.32.32 0 0 1-.321-.32v-9.797c0-.131.082-.248.204-.295 8.018-3.123 12.497-9.324 13.675-18.918.065-.533.505-.549.51-.549h10.015c.177 0 .321.145.321.323v17.218c0 .178.143.32.321.32h12.468c.177 0 .32.145.32.323v11.375a.32.32 0 0 1-.32.32H72.894a.322.322 0 0 0-.322.322v20.439c.075 4.602 2.301 6.934 6.62 6.934 1.74 0 3.734-.403 5.554-1.1a.317.317 0 0 1 .416.194l3.185 9.442a.32.32 0 0 1-.08.337z"/></svg>