<svg xmlns="http://www.w3.org/2000/svg" viewBox="0 0 128 128"><circle fill="#D41D20" cx="64" cy="64" r="64"/><path d="M38.082 62.669c-1.167 1.863-1.656 7.738-1.253 11.64.141 1.287.374 2.358.715 3.002.463.886 1.248 1.412 2.14 1.442.571.032.927-.065 11.685-3.524 0 0 4.782-1.527 4.807-1.538 1.188-.3 1.993-1.398 2.07-2.8.079-1.436-.667-2.703-1.888-3.16l-3.376-1.375c-11.564-4.77-12.08-4.958-12.665-4.965-.891-.035-1.686.417-2.235 1.278zm25.865 35.535c.189-.54.21-.916.24-12.222 0 0 .028-4.992.034-5.043.075-1.224-.715-2.335-2.015-2.836-1.336-.518-2.772-.197-3.582.805 0 0-2.356 2.802-2.365 2.802-8.106 9.515-8.44 9.954-8.635 10.518a2.223 2.223 0 0 0-.13 1.035c.048.508.276 1.006.656 1.467 1.874 2.239 10.885 5.55 13.762 5.062 1.004-.186 1.725-.745 2.035-1.588zm18.269-3.935c2.718-1.079 8.646-8.621 9.06-11.52.145-1.01-.17-1.878-.866-2.434-.457-.342-.806-.476-11.556-4.003 0 0-4.722-1.56-4.778-1.592-1.138-.44-2.441-.033-3.322 1.053-.908 1.109-1.047 2.57-.321 3.677l1.897 3.09c6.385 10.37 6.872 11.1 7.334 11.46.711.557 1.615.65 2.552.269zm-5.55-26.689c12.22-2.96 12.691-3.117 13.175-3.429.741-.502 1.111-1.334 1.048-2.351 0-.035.007-.069 0-.106-.315-2.997-5.574-10.807-8.162-12.072-.918-.44-1.84-.407-2.598.102-.477.308-.819.77-7.361 9.718 0 0-2.961 4.03-2.996 4.07-.778.948-.787 2.306-.032 3.465.791 1.21 2.124 1.8 3.35 1.46 0 0-.053.084-.068.103.604-.23 1.683-.494 3.644-.96zM64.393 57.491c-.21-4.843-1.663-26.409-1.838-27.407-.25-.91-.95-1.553-1.971-1.81-3.116-.774-15.04 2.569-17.252 4.846-.71.742-.973 1.654-.756 2.46.343.716 15.12 23.957 15.12 23.957 2.184 3.542 3.967 2.996 4.549 2.809.58-.175 2.35-.728 2.148-4.855z" fill="#FFF"/></svg>