<svg xmlns="http://www.w3.org/2000/svg" viewBox="0 0 128 128"><circle fill="#929292" cx="64" cy="64" r="64"/><path fill="#FFF" d="M83.823 90.872c-8.821 0-16.563-6.963-16.619-15.573V64.24l5.497 4.215 6.25-4.483v11.506c0 2.036 2.748 3.858 4.838 3.858 2.097 0 4.099-1.822 4.099-3.858V63.883H99.84v11.265c0 8.704-7.168 15.724-16.017 15.724zM64.002 49.203c-2.09 0-3.047 1.646-3.047 3.708V75.36c-.15 8.61-7.985 15.513-16.769 15.513-8.848 0-16.026-7.02-16.026-15.724V64.03h11.808v11c0 2.032 2.151 3.708 4.246 3.708 2.09 0 4.695-1.676 4.695-3.708V52.284c.294-8.431 6.637-15.157 15.27-15.157 8.7 0 14.473 6.784 14.739 15.245v4.991l-5.465 3.44-6.193-3.556V52.91c0-2.062-1.162-3.708-3.258-3.708z"/></svg>