<svg xmlns="http://www.w3.org/2000/svg" viewBox="0 0 128 128"><circle fill="#929292" cx="64" cy="64" r="64"/><g fill="#FFF"><path d="M28.16 100.013l5.064-18.495a35.622 35.622 0 0 1-4.765-17.842c.008-19.679 16.018-35.689 35.69-35.689 9.548.004 18.51 3.721 25.247 10.468 6.739 6.745 10.448 15.712 10.444 25.25-.008 19.677-16.02 35.689-35.69 35.689 0 0 .001 0 0 0h-.015a35.651 35.651 0 0 1-17.055-4.345l-18.92 4.964zm19.796-11.425l1.084.643a29.633 29.633 0 0 0 15.098 4.136h.012c16.35 0 29.658-13.308 29.664-29.666.003-7.926-3.08-15.379-8.681-20.986-5.6-5.607-13.048-8.696-20.97-8.7-16.364 0-29.672 13.307-29.678 29.663a29.585 29.585 0 0 0 4.536 15.786l.705 1.123-2.996 10.946 11.226-2.945z"/><path fill-rule="evenodd" clip-rule="evenodd" d="M82.13 72.19c-.223-.372-.816-.594-1.708-1.043-.893-.445-5.277-2.602-6.094-2.9-.817-.297-1.412-.446-2.008.446-.593.894-2.302 2.903-2.822 3.497-.52.595-1.041.67-1.933.225-.891-.447-3.764-1.39-7.17-4.428-2.652-2.364-4.442-5.285-4.961-6.177-.52-.893-.056-1.376.39-1.82.402-.4.892-1.042 1.338-1.562.445-.52.594-.894.892-1.489.297-.594.148-1.116-.075-1.562-.223-.446-2.006-4.836-2.75-6.621-.723-1.738-1.459-1.503-2.005-1.531a35.72 35.72 0 0 0-1.71-.032c-.594 0-1.56.224-2.378 1.116-.818.893-3.121 3.05-3.121 7.44 0 4.39 3.195 8.63 3.641 9.225.446.595 6.288 9.603 15.235 13.465a51.182 51.182 0 0 0 5.084 1.88c2.135.678 4.08.582 5.616.353 1.714-.257 5.276-2.157 6.02-4.24.742-2.084.742-3.87.52-4.242z"/></g></svg>